<?xml version="1.0" standalone="no"?>
<!DOCTYPE svg PUBLIC "-//W3C//DTD SVG 20010904//EN"
 "http://www.w3.org/TR/2001/REC-SVG-20010904/DTD/svg10.dtd">
<svg version="1.0" xmlns="http://www.w3.org/2000/svg"
 width="336.000000pt" height="280.000000pt" viewBox="0 0 336.000000 280.000000"
 preserveAspectRatio="xMidYMid meet">

<g transform="translate(0.000000,280.000000) scale(0.100000,-0.100000)"
fill="#000000" stroke="none">
<path d="M1378 2148 l-298 -172 74 -44 75 -43 173 100 c95 55 180 102 188 106
13 5 15 -21 12 -204 l-3 -210 40 -26 c37 -25 41 -26 68 -11 16 8 35 21 41 29
8 9 12 82 14 220 l3 207 183 -105 183 -106 75 43 c40 23 71 45 67 48 -12 10
-567 329 -584 335 -8 3 -148 -72 -311 -167z"/>
<path d="M1002 1932 l-32 -16 2 -210 3 -210 65 -38 c36 -21 68 -38 72 -38 5 0
8 70 8 155 0 85 3 155 6 155 5 0 425 -240 504 -289 19 -11 41 -21 49 -21 7 0
134 70 281 155 148 85 271 155 274 155 3 0 6 -70 6 -155 0 -85 3 -155 6 -155
3 0 37 17 75 38 l69 37 0 211 0 211 -39 17 -38 18 -314 -182 c-279 -161 -316
-180 -337 -170 -13 6 -156 87 -318 180 -161 94 -297 170 -301 169 -4 0 -23 -8
-41 -17z"/>
<path d="M970 1268 l0 -183 348 -200 c191 -109 354 -199 362 -199 8 0 171 90
362 199 l348 200 0 183 c0 100 -3 182 -6 182 -3 0 -37 -19 -75 -41 l-69 -41 0
-98 0 -97 -232 -134 c-128 -74 -236 -135 -240 -137 -4 -2 -8 111 -8 252 0 141
-3 256 -7 256 -5 0 -23 -9 -40 -20 -33 -20 -33 -20 -65 0 -18 11 -36 20 -40
20 -4 0 -6 -115 -5 -255 1 -169 -1 -255 -8 -253 -6 2 -115 63 -243 137 l-232
134 0 97 0 98 -69 41 c-38 22 -72 41 -75 41 -3 0 -6 -82 -6 -182z"/>
<path d="M983 95 c0 -27 2 -38 4 -22 2 15 8 27 13 27 5 0 11 -12 13 -27 4 -26
4 -26 6 5 1 22 -4 32 -13 32 -8 0 -17 8 -19 18 -3 9 -5 -5 -4 -33z"/>
<path d="M1482 95 c0 -27 2 -43 5 -35 3 8 13 24 22 35 15 18 15 19 -1 7 -14
-12 -17 -10 -21 15 -2 16 -4 6 -5 -22z"/>
<path d="M1099 119 c-8 -20 4 -62 19 -65 7 -1 8 0 2 3 -16 7 -12 43 5 43 8 0
15 -9 15 -19 0 -11 4 -22 9 -25 5 -4 7 3 4 15 -3 12 -1 24 4 28 7 4 6 11 -3
19 -8 7 -14 8 -14 2 0 -14 -27 -13 -32 2 -3 8 -6 7 -9 -3z"/>
<path d="M1328 117 c-7 -19 6 -60 20 -63 7 -1 8 0 2 3 -12 6 -13 40 -1 45 5 2
3 8 -4 15 -10 9 -14 9 -17 0z"/>
<path d="M1880 125 c-1 -5 -1 -21 0 -34 1 -13 -4 -28 -12 -32 -9 -6 -3 -9 17
-9 17 0 25 4 18 8 -6 4 -13 23 -16 42 -2 19 -5 31 -7 25z"/>
<path d="M1932 105 c-22 -28 -23 -30 -5 -34 10 -2 21 -8 24 -13 10 -15 16 14
10 47 l-6 29 -23 -29z m14 -22 c-10 -10 -19 5 -10 18 6 11 8 11 12 0 2 -7 1
-15 -2 -18z"/>
<path d="M1986 122 c-2 -4 4 -8 15 -8 10 0 19 4 19 8 0 10 -27 10 -34 0z"/>
<path d="M2045 120 c-4 -6 1 -7 11 -3 13 5 16 3 11 -10 -3 -9 -2 -19 4 -22 14
-9 -1 -27 -18 -21 -8 3 -11 1 -8 -4 8 -14 32 -13 37 2 13 39 -18 88 -37 58z"/>
<path d="M2120 125 c-1 -5 -1 -21 0 -34 1 -13 -4 -28 -12 -32 -9 -6 -3 -9 17
-9 17 0 25 4 18 8 -6 4 -13 23 -16 42 -2 19 -5 31 -7 25z"/>
<path d="M2172 105 c-22 -28 -23 -30 -5 -34 10 -2 21 -8 24 -13 10 -15 16 14
10 47 l-6 29 -23 -29z m14 -22 c-10 -10 -19 5 -10 18 6 11 8 11 12 0 2 -7 1
-15 -2 -18z"/>
<path d="M2225 120 c-3 -5 0 -7 8 -4 24 9 28 -12 7 -31 -27 -25 -25 -35 8 -34
21 0 23 2 9 7 -15 7 -16 10 -3 27 7 10 12 25 9 32 -6 15 -29 17 -38 3z"/>
<path d="M2300 125 c-1 -5 -1 -21 0 -34 1 -13 -4 -28 -12 -32 -9 -6 -3 -9 17
-9 17 0 25 4 18 8 -6 4 -13 23 -16 42 -2 19 -5 31 -7 25z"/>
<path d="M2352 105 c-22 -28 -23 -30 -5 -34 10 -2 21 -8 24 -13 10 -15 16 14
10 47 l-6 29 -23 -29z m14 -22 c-10 -10 -19 5 -10 18 6 11 8 11 12 0 2 -7 1
-15 -2 -18z"/>
<path d="M2417 123 c22 -4 22 -6 8 -33 -22 -42 -17 -51 5 -10 25 46 25 50 -7
49 -24 -2 -25 -2 -6 -6z"/>
<path d="M930 93 c0 -10 4 -14 8 -8 4 6 11 13 16 18 5 4 2 7 -7 7 -10 0 -17
-8 -17 -17z"/>
<path d="M1041 83 c-1 -27 3 -33 19 -33 16 0 20 6 19 33 -2 30 -2 30 -6 5 -6
-36 -20 -36 -26 0 -4 25 -4 25 -6 -5z"/>
<path d="M1187 104 c-13 -13 -7 -24 14 -24 11 0 19 5 17 12 -5 14 -22 21 -31
12z"/>
<path d="M1241 78 c2 -28 2 -29 6 -8 3 14 10 28 17 32 7 5 5 8 -6 8 -14 0 -18
-8 -17 -32z"/>
<path d="M1280 93 c0 -10 4 -14 8 -8 4 6 11 13 16 18 5 4 2 7 -7 7 -10 0 -17
-8 -17 -17z"/>
<path d="M1374 95 c-8 -21 2 -45 20 -45 7 0 16 7 20 15 8 21 -3 45 -20 45 -8
0 -17 -7 -20 -15z m31 -15 c0 -7 -6 -15 -12 -17 -8 -3 -13 4 -13 17 0 13 5 20
13 18 6 -3 12 -11 12 -18z"/>
<path d="M1434 95 c-8 -20 2 -45 18 -44 10 0 10 2 1 6 -7 2 -13 13 -13 23 0
10 6 21 13 23 9 4 9 6 -1 6 -7 1 -15 -6 -18 -14z"/>
<path d="M1574 95 c-8 -20 2 -45 18 -44 10 0 10 2 1 6 -7 2 -13 13 -13 23 0
10 6 21 13 23 9 4 9 6 -1 6 -7 1 -15 -6 -18 -14z"/>
<path d="M1624 95 c-8 -21 2 -45 20 -45 7 0 16 7 20 15 8 21 -3 45 -20 45 -8
0 -17 -7 -20 -15z m31 -15 c0 -7 -6 -15 -12 -17 -8 -3 -13 4 -13 17 0 13 5 20
13 18 6 -3 12 -11 12 -18z"/>
<path d="M1681 77 c2 -31 2 -31 6 -4 2 15 8 27 13 27 5 0 11 -12 13 -27 l4
-28 2 28 c0 15 5 27 10 27 5 0 12 -12 14 -27 4 -27 4 -27 6 4 1 29 -1 31 -34
31 -33 0 -35 -2 -34 -31z"/>
<path d="M1997 82 c-24 -26 -21 -32 11 -31 16 1 20 3 10 6 -14 4 -16 8 -8 24
13 24 8 24 -13 1z"/>
<path d="M942 65 c-11 -12 -10 -15 3 -15 8 0 15 7 15 15 0 18 -2 18 -18 0z"/>
<path d="M1292 65 c-11 -12 -10 -15 3 -15 8 0 15 7 15 15 0 18 -2 18 -18 0z"/>
<path d="M1500 71 c0 -5 5 -13 10 -16 6 -3 10 -2 10 4 0 5 -4 13 -10 16 -5 3
-10 2 -10 -4z"/>
<path d="M1188 58 c5 -5 16 -8 23 -6 8 3 3 7 -10 11 -17 4 -21 3 -13 -5z"/>
</g>
</svg>
